ply
format ascii 1.0
comment VCGLIB generated
element vertex 144
property float x
property float y
property float z
element face 284
property list uchar int vertex_indices
end_header
-7 -4.25 -7.3612 
-7 -8.2104 2.2 
-7 -6.0104 6.0104 
-7 -4.25 7.3612 
-7 -2.2 8.2104 
-7 -2.2 -8.2104 
-7 6.0104 6.0104 
-7 8.2104 -2.2 
-7 7.3612 -4.25 
-7 4.25 -7.3612 
30 2.04 3.5334 
30 3.5334 2.04 
30 0 4.08 
30 -4.08 0 
30 -1.056 -3.941 
30 1.056 -3.941 
30 2.04 -3.5334 
30 2.885 -2.885 
30 3.5334 -2.04 
30 3.941 -1.056 
30 4.08 0 
0 -0 -5 
29.08 1.2941 -4.8296 
29.08 -0 -5 
0 9.6531 0.2804 
0 5 0 
0 5.0693 -8.2196 
0 4.845 -8.3918 
0 4.3301 2.5 
0 4.845 8.3918 
0 5.0693 8.2196 
0 -1.2941 4.8296 
0 4.5837 8.5 
0 -4.5837 8.5 
0 -4.8296 1.2941 
0 -4.3301 2.5 
0 -5.0693 8.2196 
0 -5 0 
0 -4.845 8.3918 
0 3.5355 -3.5355 
0 2.5 -4.3301 
0 4.5837 -8.5 
0 -4.5837 -8.5 
0 -3.5355 -3.5355 
0 -4.8296 -1.2941 
0 -4.845 -8.3918 
-6.8269 2.2776 -8.5 
0 1.2941 -4.8296 
29.08 2.5 -4.3301 
-6.313 4.5837 -8.5 
-7 2.2 -8.2104 
29.08 3.5355 -3.5355 
-6.313 4.845 -8.3918 
0 9.6531 -0.2804 
-6.313 5.0693 -8.2196 
-6.313 9.6531 -0.2804 
-6.8269 6.2224 -6.2224 
-7 6.0104 -6.0104 
0 4.3301 -2.5 
29.08 4.3301 -2.5 
29.08 5 0 
0 4.8296 -1.2941 
29.08 4.8296 -1.2941 
0 9.69 0 
-6.8269 8.5 -2.2776 
-7 8.5 0 
0 4.8296 1.2941 
-6.313 9.6531 0.2804 
-6.8269 8.5 2.2776 
-6.313 9.69 0 
-7 8.2104 2.2 
30 3.941 1.056 
29.08 4.8296 1.2941 
-7 7.3612 4.25 
29.08 4.3301 2.5 
29.08 3.5355 3.5355 
30 2.885 2.885 
0 3.5355 3.5355 
0 2.5 4.3301 
29.08 2.5 4.3301 
-6.313 5.0693 8.2196 
-6.8269 6.2224 6.2224 
-7 4.25 7.3612 
30 1.056 3.941 
-6.313 4.5837 8.5 
-6.313 -4.5837 8.5 
-7 2.2 8.2104 
-6.8269 2.2776 8.5 
-6.313 4.845 8.3918 
0 1.2941 4.8296 
0 0 5 
29.08 1.2941 4.8296 
-7 0 8.5 
30 -1.056 3.941 
29.08 0 5 
0 -2.5 4.3301 
29.08 -1.2941 4.8296 
30 -2.04 3.5334 
29.08 -2.5 4.3301 
-6.8269 -2.2776 8.5 
30 -2.885 2.885 
-6.313 -5.0693 8.2196 
-6.8269 -6.2224 6.2224 
0 -9.6531 0.2804 
-6.313 -9.6531 0.2804 
-6.313 -4.845 8.3918 
29.08 -3.5355 3.5355 
0 -3.5355 3.5355 
29.08 -4.3301 2.5 
29.08 -4.8296 1.2941 
30 -3.941 1.056 
30 -3.5334 2.04 
-7 -7.3612 4.25 
29.08 -5 0 
0 -9.69 0 
-6.8269 -8.5 2.2776 
-6.313 -9.69 0 
29.08 -4.8296 -1.2941 
30 -3.941 -1.056 
0 -9.6531 -0.2804 
-6.313 -5.0693 -8.2196 
-7 -8.5 0 
-7 -8.2104 -2.2 
-6.8269 -8.5 -2.2776 
-6.313 -9.6531 -0.2804 
-7 -7.3612 -4.25 
0 -4.3301 -2.5 
29.08 -4.3301 -2.5 
30 -2.885 -2.885 
30 -3.5334 -2.04 
-7 -6.0104 -6.0104 
29.08 -3.5355 -3.5355 
0 -2.5 -4.3301 
0 -5.0693 -8.2196 
-6.8269 -6.2224 -6.2224 
29.08 -2.5 -4.3301 
29.08 -1.2941 -4.8296 
0 -1.2941 -4.8296 
30 -2.04 -3.5334 
-6.313 -4.5837 -8.5 
-7 -0 -8.5 
-6.313 -4.845 -8.3918 
-6.8269 -2.2776 -8.5 
30 -0 -4.08 
3 5 0 130 
3 5 130 125 
3 5 125 122 
3 5 122 121 
3 5 121 1 
3 5 1 112 
3 5 112 2 
3 5 2 3 
3 5 3 4 
3 5 4 92 
3 5 92 86 
3 5 86 82 
3 5 82 6 
3 5 6 73 
3 5 73 70 
3 5 70 65 
3 5 65 7 
3 5 7 8 
3 5 8 57 
3 5 57 9 
3 5 9 50 
3 5 50 140 
3 11 76 10 
3 11 10 83 
3 11 83 12 
3 11 12 93 
3 11 93 97 
3 11 97 100 
3 11 100 111 
3 11 111 110 
3 11 110 13 
3 11 13 118 
3 11 118 129 
3 11 129 128 
3 11 128 138 
3 11 138 14 
3 11 14 143 
3 11 143 15 
3 11 15 16 
3 11 16 17 
3 11 17 18 
3 11 18 19 
3 11 19 20 
3 11 20 71 
3 21 47 22 
3 21 22 23 
3 22 15 143 
3 22 143 23 
3 63 24 53 
3 53 24 30 
3 53 30 26 
3 26 30 25 
3 26 25 27 
3 27 25 61 
3 27 61 41 
3 41 61 58 
3 41 58 39 
3 77 28 32 
3 32 28 66 
3 32 66 29 
3 29 66 25 
3 29 25 30 
3 32 33 95 
3 32 95 31 
3 32 31 90 
3 32 90 89 
3 32 89 78 
3 32 78 77 
3 33 38 34 
3 33 34 35 
3 33 35 107 
3 33 107 95 
3 114 119 103 
3 103 119 133 
3 103 133 36 
3 36 133 37 
3 36 37 38 
3 38 37 34 
3 41 39 40 
3 41 40 47 
3 41 47 21 
3 41 21 137 
3 41 137 132 
3 41 132 42 
3 42 132 43 
3 42 43 126 
3 42 126 44 
3 42 44 45 
3 37 133 45 
3 37 45 44 
3 46 140 50 
3 47 40 48 
3 47 48 22 
3 48 16 15 
3 48 15 22 
3 41 49 52 
3 41 52 27 
3 46 50 9 
3 46 9 52 
3 46 52 49 
3 39 51 48 
3 39 48 40 
3 51 17 16 
3 51 16 48 
3 26 27 52 
3 26 52 54 
3 53 26 54 
3 53 54 56 
3 53 56 8 
3 53 8 64 
3 53 64 55 
3 52 9 57 
3 52 57 56 
3 52 56 54 
3 58 59 51 
3 58 51 39 
3 59 18 17 
3 59 17 51 
3 56 57 8 
3 59 58 61 
3 59 61 62 
3 18 59 62 
3 18 62 19 
3 64 8 7 
3 60 62 61 
3 60 61 25 
3 20 19 62 
3 20 62 60 
3 55 69 63 
3 55 63 53 
3 64 7 65 
3 64 65 69 
3 64 69 55 
3 60 25 66 
3 60 66 72 
3 60 72 71 
3 60 71 20 
3 24 63 69 
3 24 69 67 
3 30 24 67 
3 30 67 68 
3 30 68 73 
3 30 73 81 
3 30 81 80 
3 69 65 70 
3 69 70 68 
3 69 68 67 
3 72 66 28 
3 72 28 74 
3 11 71 72 
3 11 72 74 
3 68 70 73 
3 75 74 28 
3 75 28 77 
3 75 76 11 
3 75 11 74 
3 81 73 6 
3 75 77 78 
3 75 78 79 
3 76 75 79 
3 76 79 10 
3 80 88 29 
3 80 29 30 
3 81 6 82 
3 81 82 88 
3 81 88 80 
3 91 79 78 
3 91 78 89 
3 79 91 83 
3 79 83 10 
3 32 29 88 
3 32 88 84 
3 33 32 84 
3 33 84 87 
3 33 87 92 
3 33 92 99 
3 33 99 85 
3 88 82 86 
3 88 86 87 
3 88 87 84 
3 91 89 90 
3 91 90 94 
3 12 83 91 
3 12 91 94 
3 87 86 92 
3 94 90 31 
3 94 31 96 
3 94 96 93 
3 94 93 12 
3 99 92 4 
3 31 95 98 
3 31 98 96 
3 97 93 96 
3 97 96 98 
3 105 38 33 
3 105 33 85 
3 99 4 3 
3 99 3 105 
3 99 105 85 
3 106 98 95 
3 106 95 107 
3 97 98 106 
3 97 106 100 
3 101 36 38 
3 101 38 105 
3 103 36 101 
3 103 101 102 
3 103 102 112 
3 103 112 115 
3 103 115 104 
3 105 3 2 
3 105 2 102 
3 105 102 101 
3 35 108 106 
3 35 106 107 
3 106 108 111 
3 106 111 100 
3 102 2 112 
3 109 108 35 
3 109 35 34 
3 109 110 111 
3 109 111 108 
3 115 112 1 
3 37 113 109 
3 37 109 34 
3 13 110 109 
3 13 109 113 
3 116 114 103 
3 116 103 104 
3 115 1 121 
3 115 121 116 
3 115 116 104 
3 44 117 113 
3 44 113 37 
3 118 13 113 
3 118 113 117 
3 124 119 114 
3 124 114 116 
3 133 119 124 
3 133 124 123 
3 133 123 125 
3 133 125 134 
3 133 134 120 
3 116 121 122 
3 116 122 123 
3 116 123 124 
3 127 117 44 
3 127 44 126 
3 127 129 118 
3 127 118 117 
3 123 122 125 
3 126 43 131 
3 126 131 127 
3 127 131 128 
3 127 128 129 
3 134 125 130 
3 135 131 43 
3 135 43 132 
3 128 131 135 
3 128 135 138 
3 141 45 133 
3 141 133 120 
3 134 130 0 
3 134 0 141 
3 134 141 120 
3 136 135 132 
3 136 132 137 
3 136 14 138 
3 136 138 135 
3 139 42 45 
3 139 45 141 
3 41 42 139 
3 41 139 142 
3 41 142 140 
3 41 140 46 
3 41 46 49 
3 141 0 5 
3 141 5 142 
3 141 142 139 
3 136 137 21 
3 136 21 23 
3 143 14 136 
3 143 136 23 
3 142 5 140 
